<svg width="48" height="48" viewBox="0 0 48 48" fill="none" xmlns="http://www.w3.org/2000/svg">
<path d="M24.02 32.53C21.69 32.53 19.36 32.16 17.15 31.42C16.31 31.13 15.67 30.54 15.39 29.77C15.1 29 15.2 28.15 15.66 27.39L16.81 25.48C17.05 25.08 17.27 24.28 17.27 23.81V20.92C17.27 17.2 20.3 14.17 24.02 14.17C27.74 14.17 30.77 17.2 30.77 20.92V23.81C30.77 24.27 30.99 25.08 31.23 25.49L32.37 27.39C32.8 28.11 32.88 28.98 32.59 29.77C32.3 30.56 31.67 31.16 30.88 31.42C28.68 32.16 26.35 32.53 24.02 32.53ZM24.02 15.67C21.13 15.67 18.77 18.02 18.77 20.92V23.81C18.77 24.54 18.47 25.62 18.1 26.25L16.95 28.16C16.73 28.53 16.67 28.92 16.8 29.25C16.92 29.59 17.22 29.85 17.63 29.99C21.81 31.39 26.24 31.39 30.42 29.99C30.78 29.87 31.06 29.6 31.19 29.24C31.32 28.88 31.29 28.49 31.09 28.16L29.94 26.25C29.56 25.6 29.27 24.53 29.27 23.8V20.92C29.27 18.02 26.92 15.67 24.02 15.67Z" fill="#4D525B"/>
<path d="M25.88 15.94C25.81 15.94 25.74 15.93 25.67 15.91C25.38 15.83 25.1 15.77 24.83 15.73C23.98 15.62 23.16 15.68 22.39 15.91C22.11 16 21.81 15.91 21.62 15.7C21.43 15.49 21.37 15.19 21.48 14.92C21.89 13.87 22.89 13.18 24.03 13.18C25.17 13.18 26.17 13.86 26.58 14.92C26.68 15.19 26.63 15.49 26.44 15.7C26.29 15.86 26.08 15.94 25.88 15.94Z" fill="#4D525B"/>
<path d="M24.02 34.81C23.03 34.81 22.07 34.41 21.37 33.71C20.67 33.01 20.27 32.05 20.27 31.06H21.77C21.77 31.65 22.01 32.23 22.43 32.65C22.85 33.07 23.43 33.31 24.02 33.31C25.26 33.31 26.27 32.3 26.27 31.06H27.77C27.77 33.13 26.09 34.81 24.02 34.81Z" fill="#4D525B"/>
<rect class="bell" x="0.5" y="0.5" width="47" height="47" rx="23.5" stroke="#181A1B"/>
</svg>
