<svg width="21" height="20" viewBox="0 0 21 20" fill="none" xmlns="http://www.w3.org/2000/svg">
<path d="M5.00831 18.125C4.07498 18.125 3.48331 17.8083 3.10831 17.4333C2.37498 16.7 1.85831 15.1416 3.50831 11.8333L4.23331 10.3916C4.32498 10.2 4.32498 9.79996 4.23331 9.60829L3.50831 8.16662C1.84998 4.85829 2.37498 3.29162 3.10831 2.56662C3.83331 1.83329 5.39998 1.30829 8.69998 2.96662L15.8333 6.53329C17.6083 7.41662 18.5833 8.64996 18.5833 9.99996C18.5833 11.35 17.6083 12.5833 15.8416 13.4666L8.70831 17.0333C7.09164 17.8416 5.89164 18.125 5.00831 18.125ZM5.00831 3.12496C4.55831 3.12496 4.20831 3.23329 3.99164 3.44996C3.38331 4.04996 3.62498 5.60829 4.62498 7.59996L5.34998 9.04996C5.61664 9.59162 5.61664 10.4083 5.34998 10.95L4.62498 12.3916C3.62498 14.3916 3.38331 15.9416 3.99164 16.5416C4.59164 17.15 6.14998 16.9083 8.14998 15.9083L15.2833 12.3416C16.5916 11.6916 17.3333 10.8333 17.3333 9.99162C17.3333 9.14996 16.5833 8.29162 15.275 7.64162L8.14164 4.08329C6.87498 3.44996 5.78331 3.12496 5.00831 3.12496Z" fill="#0E0F10"/>
<path d="M9.53333 10.625H5.03333C4.69166 10.625 4.40833 10.3417 4.40833 10C4.40833 9.65833 4.69166 9.375 5.03333 9.375H9.53333C9.87499 9.375 10.1583 9.65833 10.1583 10C10.1583 10.3417 9.87499 10.625 9.53333 10.625Z" fill="#0E0F10"/>
</svg>
